<mxfile host="app.diagrams.net" modified="2024-02-19T11:59:57.914Z" agent="Mozilla/5.0 (Windows NT 10.0; Win64; x64) AppleWebKit/537.36 (KHTML, like Gecko) Chrome/121.0.0.0 Safari/537.36" etag="nHD_be0vOawBBmNxS3Gg" version="23.1.5" type="github">
  <diagram name="Page-1" id="0gsjQFyv3NRoFzahZl-y">
    <mxGraphModel dx="1730" dy="468" grid="1" gridSize="10" guides="1" tooltips="1" connect="1" arrows="1" fold="1" page="1" pageScale="1" pageWidth="850" pageHeight="1100" math="0" shadow="0">
      <root>
        <mxCell id="0" />
        <mxCell id="1" parent="0" />
        <mxCell id="5imBQl4e0gVhkzBQBppZ-1" value="TERNARY OPERATOR IN JAVASCRIPT" style="rounded=0;whiteSpace=wrap;html=1;fillColor=#ffe6cc;strokeColor=#ef2917;fontSize=18;" vertex="1" parent="1">
          <mxGeometry x="160" y="40" width="360" height="40" as="geometry" />
        </mxCell>
        <mxCell id="5imBQl4e0gVhkzBQBppZ-2" value="&lt;font style=&quot;font-size: 20px;&quot;&gt;Condition&lt;/font&gt;" style="rounded=0;whiteSpace=wrap;html=1;" vertex="1" parent="1">
          <mxGeometry x="-1" y="118" width="200" height="40" as="geometry" />
        </mxCell>
        <mxCell id="5imBQl4e0gVhkzBQBppZ-3" value="" style="rounded=0;whiteSpace=wrap;html=1;" vertex="1" parent="1">
          <mxGeometry x="240" y="118" width="200" height="40" as="geometry" />
        </mxCell>
        <mxCell id="5imBQl4e0gVhkzBQBppZ-4" value="" style="rounded=0;whiteSpace=wrap;html=1;" vertex="1" parent="1">
          <mxGeometry x="480" y="118" width="200" height="40" as="geometry" />
        </mxCell>
        <mxCell id="5imBQl4e0gVhkzBQBppZ-6" value="?" style="text;html=1;align=center;verticalAlign=middle;whiteSpace=wrap;rounded=0;fontSize=38;" vertex="1" parent="1">
          <mxGeometry x="190" y="123" width="60" height="30" as="geometry" />
        </mxCell>
        <mxCell id="5imBQl4e0gVhkzBQBppZ-8" value=":" style="text;html=1;align=center;verticalAlign=middle;whiteSpace=wrap;rounded=0;fontSize=38;" vertex="1" parent="1">
          <mxGeometry x="425" y="118" width="60" height="30" as="geometry" />
        </mxCell>
        <mxCell id="5imBQl4e0gVhkzBQBppZ-9" value="a" style="text;html=1;align=center;verticalAlign=middle;whiteSpace=wrap;rounded=0;fontSize=25;" vertex="1" parent="1">
          <mxGeometry x="295" y="123" width="60" height="30" as="geometry" />
        </mxCell>
        <mxCell id="5imBQl4e0gVhkzBQBppZ-10" value="b" style="text;html=1;align=center;verticalAlign=middle;whiteSpace=wrap;rounded=0;fontSize=25;" vertex="1" parent="1">
          <mxGeometry x="530" y="123" width="60" height="30" as="geometry" />
        </mxCell>
        <mxCell id="5imBQl4e0gVhkzBQBppZ-13" value="condition" style="rounded=0;whiteSpace=wrap;labelBackgroundColor=none;fontColor=default;fontSize=35;" vertex="1" parent="1">
          <mxGeometry x="40" y="400" width="570" height="40" as="geometry" />
        </mxCell>
        <mxCell id="5imBQl4e0gVhkzBQBppZ-15" value=" expression to execute if the condition is truthy" style="rounded=0;whiteSpace=wrap;labelBackgroundColor=none;fontColor=default;fontSize=29;" vertex="1" parent="1">
          <mxGeometry x="140" y="310" width="650" height="40" as="geometry" />
        </mxCell>
        <mxCell id="5imBQl4e0gVhkzBQBppZ-16" value="the expression to execute if the condition is falsy." style="rounded=0;whiteSpace=wrap;labelBackgroundColor=none;fontColor=default;fontSize=23;" vertex="1" parent="1">
          <mxGeometry x="320" y="210" width="510" height="40" as="geometry" />
        </mxCell>
        <mxCell id="5imBQl4e0gVhkzBQBppZ-17" value="" style="endArrow=classic;html=1;rounded=0;exitX=0.355;exitY=1.075;exitDx=0;exitDy=0;exitPerimeter=0;entryX=0.053;entryY=-0.075;entryDx=0;entryDy=0;entryPerimeter=0;" edge="1" parent="1" source="5imBQl4e0gVhkzBQBppZ-2" target="5imBQl4e0gVhkzBQBppZ-13">
          <mxGeometry width="50" height="50" relative="1" as="geometry">
            <mxPoint x="400" y="250" as="sourcePoint" />
            <mxPoint x="450" y="200" as="targetPoint" />
          </mxGeometry>
        </mxCell>
        <mxCell id="5imBQl4e0gVhkzBQBppZ-18" value="" style="endArrow=classic;html=1;rounded=0;entryX=0.218;entryY=0;entryDx=0;entryDy=0;entryPerimeter=0;" edge="1" parent="1" target="5imBQl4e0gVhkzBQBppZ-15">
          <mxGeometry width="50" height="50" relative="1" as="geometry">
            <mxPoint x="280" y="160" as="sourcePoint" />
            <mxPoint x="450" y="200" as="targetPoint" />
          </mxGeometry>
        </mxCell>
        <mxCell id="5imBQl4e0gVhkzBQBppZ-19" value="" style="endArrow=classic;html=1;rounded=0;entryX=0.471;entryY=0.05;entryDx=0;entryDy=0;entryPerimeter=0;" edge="1" parent="1" target="5imBQl4e0gVhkzBQBppZ-16">
          <mxGeometry width="50" height="50" relative="1" as="geometry">
            <mxPoint x="560" y="160" as="sourcePoint" />
            <mxPoint x="450" y="200" as="targetPoint" />
          </mxGeometry>
        </mxCell>
      </root>
    </mxGraphModel>
  </diagram>
</mxfile>
